<svg xmlns="http://www.w3.org/2000/svg" viewBox="0 0 800 800" width="800" height="800" role="img" aria-label="Ilustrasi GENDONG">
<defs>
  <pattern id="pat-gendong" width="40" height="40" patternUnits="userSpaceOnUse">
          <rect width="40" height="40" fill="#b0c1b6"/>
          <rect x="4" y="4" width="14" height="14" fill="#d4a574" opacity="0.55"/>
          <circle cx="30" cy="12" r="7" fill="#e3c4a5" opacity="0.6"/>
          <rect x="18" y="24" width="18" height="10" fill="#96a49b" opacity="0.7"/>
        </pattern>
  <radialGradient id="blob-gendong" cx="50%" cy="50%" r="50%">
    <stop offset="0%" stop-color="#d4a574" stop-opacity="0.16"/>
    <stop offset="100%" stop-color="#d4a574" stop-opacity="0"/>
  </radialGradient>
</defs>
<rect width="800" height="800" fill="#f7f6f3"/>
<circle cx="469.1" cy="681.6" r="0.73" fill="#1a1a1a" opacity="0.05"/><circle cx="121.2" cy="370.5" r="1.21" fill="#1a1a1a" opacity="0.05"/><circle cx="74.6" cy="574.8" r="1.21" fill="#1a1a1a" opacity="0.05"/><circle cx="646.0" cy="523.4" r="1.12" fill="#1a1a1a" opacity="0.05"/><circle cx="128.8" cy="770.9" r="0.91" fill="#1a1a1a" opacity="0.05"/><circle cx="583.0" cy="521.1" r="1.24" fill="#1a1a1a" opacity="0.05"/><circle cx="273.1" cy="628.3" r="0.77" fill="#1a1a1a" opacity="0.05"/><circle cx="288.3" cy="684.8" r="0.84" fill="#1a1a1a" opacity="0.05"/><circle cx="712.5" cy="619.3" r="0.81" fill="#1a1a1a" opacity="0.05"/><circle cx="167.1" cy="488.3" r="0.56" fill="#1a1a1a" opacity="0.05"/><circle cx="121.9" cy="502.2" r="0.90" fill="#1a1a1a" opacity="0.05"/><circle cx="643.8" cy="114.1" r="1.20" fill="#1a1a1a" opacity="0.05"/><circle cx="437.7" cy="775.2" r="1.13" fill="#1a1a1a" opacity="0.05"/><circle cx="69.7" cy="75.3" r="0.75" fill="#1a1a1a" opacity="0.05"/><circle cx="747.2" cy="129.2" r="0.72" fill="#1a1a1a" opacity="0.05"/><circle cx="290.7" cy="71.4" r="0.64" fill="#1a1a1a" opacity="0.05"/><circle cx="617.6" cy="206.4" r="0.88" fill="#1a1a1a" opacity="0.05"/><circle cx="204.8" cy="701.3" r="1.02" fill="#1a1a1a" opacity="0.05"/><circle cx="112.4" cy="99.2" r="0.95" fill="#1a1a1a" opacity="0.05"/><circle cx="31.7" cy="687.2" r="0.82" fill="#1a1a1a" opacity="0.05"/><circle cx="685.6" cy="733.7" r="0.60" fill="#1a1a1a" opacity="0.05"/><circle cx="293.4" cy="675.9" r="1.26" fill="#1a1a1a" opacity="0.05"/><circle cx="298.9" cy="545.8" r="0.90" fill="#1a1a1a" opacity="0.05"/><circle cx="210.3" cy="700.4" r="1.05" fill="#1a1a1a" opacity="0.05"/><circle cx="496.5" cy="515.1" r="1.09" fill="#1a1a1a" opacity="0.05"/><circle cx="195.9" cy="657.0" r="0.51" fill="#1a1a1a" opacity="0.05"/><circle cx="682.4" cy="232.5" r="0.63" fill="#1a1a1a" opacity="0.05"/><circle cx="319.4" cy="58.4" r="0.81" fill="#1a1a1a" opacity="0.05"/><circle cx="369.8" cy="74.8" r="0.87" fill="#1a1a1a" opacity="0.05"/><circle cx="514.0" cy="720.1" r="0.87" fill="#1a1a1a" opacity="0.05"/><circle cx="68.7" cy="585.4" r="1.23" fill="#1a1a1a" opacity="0.05"/><circle cx="738.0" cy="614.6" r="0.66" fill="#1a1a1a" opacity="0.05"/><circle cx="263.0" cy="253.8" r="1.30" fill="#1a1a1a" opacity="0.05"/><circle cx="389.0" cy="561.8" r="0.88" fill="#1a1a1a" opacity="0.05"/><circle cx="222.7" cy="30.6" r="0.62" fill="#1a1a1a" opacity="0.05"/><circle cx="376.0" cy="512.2" r="0.76" fill="#1a1a1a" opacity="0.05"/><circle cx="25.1" cy="480.9" r="0.80" fill="#1a1a1a" opacity="0.05"/><circle cx="749.2" cy="289.2" r="0.84" fill="#1a1a1a" opacity="0.05"/><circle cx="378.7" cy="43.3" r="1.19" fill="#1a1a1a" opacity="0.05"/><circle cx="762.1" cy="546.9" r="0.72" fill="#1a1a1a" opacity="0.05"/><circle cx="508.5" cy="66.9" r="0.56" fill="#1a1a1a" opacity="0.05"/><circle cx="324.1" cy="238.7" r="1.07" fill="#1a1a1a" opacity="0.05"/><circle cx="697.0" cy="419.8" r="1.04" fill="#1a1a1a" opacity="0.05"/><circle cx="207.6" cy="664.4" r="0.57" fill="#1a1a1a" opacity="0.05"/><circle cx="721.3" cy="273.6" r="1.10" fill="#1a1a1a" opacity="0.05"/><circle cx="131.6" cy="279.4" r="0.84" fill="#1a1a1a" opacity="0.05"/><circle cx="380.4" cy="551.1" r="0.63" fill="#1a1a1a" opacity="0.05"/><circle cx="557.4" cy="283.8" r="1.05" fill="#1a1a1a" opacity="0.05"/><circle cx="311.3" cy="7.9" r="1.13" fill="#1a1a1a" opacity="0.05"/><circle cx="477.7" cy="62.2" r="1.03" fill="#1a1a1a" opacity="0.05"/><circle cx="493.2" cy="259.0" r="1.29" fill="#1a1a1a" opacity="0.05"/><circle cx="751.2" cy="594.3" r="1.09" fill="#1a1a1a" opacity="0.05"/><circle cx="253.2" cy="120.4" r="0.87" fill="#1a1a1a" opacity="0.05"/><circle cx="118.0" cy="691.4" r="0.59" fill="#1a1a1a" opacity="0.05"/><circle cx="776.0" cy="325.1" r="0.92" fill="#1a1a1a" opacity="0.05"/><circle cx="2.9" cy="360.4" r="1.17" fill="#1a1a1a" opacity="0.05"/><circle cx="100.6" cy="359.5" r="1.28" fill="#1a1a1a" opacity="0.05"/><circle cx="78.0" cy="174.9" r="1.28" fill="#1a1a1a" opacity="0.05"/><circle cx="336.1" cy="436.9" r="0.63" fill="#1a1a1a" opacity="0.05"/><circle cx="302.0" cy="278.5" r="1.26" fill="#1a1a1a" opacity="0.05"/><circle cx="777.4" cy="461.5" r="0.51" fill="#1a1a1a" opacity="0.05"/><circle cx="651.0" cy="13.0" r="1.22" fill="#1a1a1a" opacity="0.05"/><circle cx="401.7" cy="694.2" r="1.06" fill="#1a1a1a" opacity="0.05"/><circle cx="519.1" cy="364.8" r="0.83" fill="#1a1a1a" opacity="0.05"/><circle cx="281.8" cy="434.0" r="0.92" fill="#1a1a1a" opacity="0.05"/><circle cx="612.1" cy="90.7" r="0.64" fill="#1a1a1a" opacity="0.05"/><circle cx="342.7" cy="141.5" r="0.98" fill="#1a1a1a" opacity="0.05"/><circle cx="434.2" cy="305.3" r="1.18" fill="#1a1a1a" opacity="0.05"/><circle cx="550.8" cy="350.0" r="0.73" fill="#1a1a1a" opacity="0.05"/><circle cx="496.3" cy="740.1" r="1.19" fill="#1a1a1a" opacity="0.05"/><circle cx="796.3" cy="644.8" r="0.58" fill="#1a1a1a" opacity="0.05"/><circle cx="519.7" cy="493.0" r="0.83" fill="#1a1a1a" opacity="0.05"/><circle cx="397.1" cy="601.4" r="1.24" fill="#1a1a1a" opacity="0.05"/><circle cx="79.8" cy="355.3" r="0.96" fill="#1a1a1a" opacity="0.05"/><circle cx="26.1" cy="231.9" r="0.84" fill="#1a1a1a" opacity="0.05"/><circle cx="178.3" cy="363.7" r="0.80" fill="#1a1a1a" opacity="0.05"/><circle cx="156.4" cy="375.7" r="0.60" fill="#1a1a1a" opacity="0.05"/><circle cx="774.1" cy="731.2" r="0.83" fill="#1a1a1a" opacity="0.05"/><circle cx="656.3" cy="563.1" r="1.09" fill="#1a1a1a" opacity="0.05"/><circle cx="6.1" cy="299.7" r="0.68" fill="#1a1a1a" opacity="0.05"/><circle cx="226.9" cy="703.7" r="0.71" fill="#1a1a1a" opacity="0.05"/><circle cx="670.8" cy="636.1" r="0.83" fill="#1a1a1a" opacity="0.05"/><circle cx="193.2" cy="720.1" r="0.83" fill="#1a1a1a" opacity="0.05"/><circle cx="12.4" cy="122.7" r="0.80" fill="#1a1a1a" opacity="0.05"/><circle cx="653.4" cy="656.0" r="0.98" fill="#1a1a1a" opacity="0.05"/><circle cx="268.1" cy="767.3" r="1.29" fill="#1a1a1a" opacity="0.05"/><circle cx="193.5" cy="778.8" r="0.65" fill="#1a1a1a" opacity="0.05"/><circle cx="515.5" cy="662.8" r="1.14" fill="#1a1a1a" opacity="0.05"/><circle cx="462.3" cy="103.1" r="1.01" fill="#1a1a1a" opacity="0.05"/><circle cx="781.9" cy="139.0" r="1.22" fill="#1a1a1a" opacity="0.05"/><circle cx="413.8" cy="349.9" r="0.58" fill="#1a1a1a" opacity="0.05"/><circle cx="640.9" cy="403.4" r="1.01" fill="#1a1a1a" opacity="0.05"/><circle cx="627.4" cy="674.4" r="1.00" fill="#1a1a1a" opacity="0.05"/><circle cx="208.2" cy="442.3" r="1.26" fill="#1a1a1a" opacity="0.05"/><circle cx="163.0" cy="74.6" r="0.85" fill="#1a1a1a" opacity="0.05"/><circle cx="503.1" cy="474.6" r="0.52" fill="#1a1a1a" opacity="0.05"/><circle cx="566.1" cy="736.5" r="0.56" fill="#1a1a1a" opacity="0.05"/><circle cx="305.9" cy="593.9" r="0.60" fill="#1a1a1a" opacity="0.05"/><circle cx="363.0" cy="505.2" r="0.79" fill="#1a1a1a" opacity="0.05"/><circle cx="191.8" cy="718.3" r="0.74" fill="#1a1a1a" opacity="0.05"/><circle cx="428.3" cy="196.2" r="1.12" fill="#1a1a1a" opacity="0.05"/><circle cx="628.8" cy="616.3" r="1.03" fill="#1a1a1a" opacity="0.05"/><circle cx="220.0" cy="748.0" r="1.00" fill="#1a1a1a" opacity="0.05"/><circle cx="510.7" cy="463.5" r="0.58" fill="#1a1a1a" opacity="0.05"/><circle cx="367.3" cy="476.7" r="0.59" fill="#1a1a1a" opacity="0.05"/><circle cx="226.0" cy="715.7" r="0.57" fill="#1a1a1a" opacity="0.05"/><circle cx="395.4" cy="289.1" r="1.17" fill="#1a1a1a" opacity="0.05"/><circle cx="312.6" cy="392.8" r="0.52" fill="#1a1a1a" opacity="0.05"/><circle cx="58.9" cy="767.4" r="0.56" fill="#1a1a1a" opacity="0.05"/><circle cx="549.9" cy="300.2" r="0.75" fill="#1a1a1a" opacity="0.05"/><circle cx="726.6" cy="646.8" r="0.64" fill="#1a1a1a" opacity="0.05"/><circle cx="8.1" cy="142.9" r="0.95" fill="#1a1a1a" opacity="0.05"/><circle cx="485.3" cy="25.2" r="1.28" fill="#1a1a1a" opacity="0.05"/><circle cx="795.0" cy="387.1" r="0.99" fill="#1a1a1a" opacity="0.05"/><circle cx="437.2" cy="126.7" r="1.09" fill="#1a1a1a" opacity="0.05"/><circle cx="741.3" cy="154.3" r="0.52" fill="#1a1a1a" opacity="0.05"/><circle cx="18.4" cy="409.4" r="0.62" fill="#1a1a1a" opacity="0.05"/><circle cx="693.5" cy="91.8" r="0.67" fill="#1a1a1a" opacity="0.05"/><circle cx="262.0" cy="175.8" r="1.08" fill="#1a1a1a" opacity="0.05"/><circle cx="751.9" cy="214.1" r="0.89" fill="#1a1a1a" opacity="0.05"/>
<circle cx="400" cy="400" r="280" fill="url(#blob-gendong)"/>

<g transform="rotate(3 400 440)">
  <!-- single diagonal strap -->
  <path d="M280.0 330.0 C 140 80 660 80 510.0 320.0"
        fill="none" stroke="#1a1a1a" stroke-width="14" stroke-linecap="round" opacity="0.88"/>
  <path d="M280.0 330.0 C 140 80 660 80 510.0 320.0"
        fill="none" stroke="#d4a574" stroke-width="4" stroke-linecap="round" opacity="0.9"/>

  <!-- top flap -->
  <path d="M270.0 320.0 Q 400 270.0 530.0 320.0 L530.0 360.0 Q 400 380.0 270.0 360.0 Z"
        fill="#a2b2a7" stroke="#1a1a1a" stroke-width="2.5"/>

  <!-- body -->
  <rect x="270.0" y="350.0" width="260" height="260" rx="18" fill="url(#pat-gendong)" stroke="#1a1a1a" stroke-width="3"/>

  <!-- front pocket -->
  <rect x="300.0" y="440" width="200" height="110.0" rx="10" fill="#9eaea4" stroke="#1a1a1a" stroke-width="2" opacity="0.85"/>
</g>

<g transform="translate(400 640.0)">
    <rect x="-118" y="-22" width="236" height="44" rx="22" fill="#fffef9" stroke="#d4a574" stroke-width="1.5" opacity="0.95"/>
    <text x="0" y="6" font-family="Georgia, 'Times New Roman', serif" font-size="15" font-weight="600" letter-spacing="1.5" fill="#9f7c57" text-anchor="middle">GENDONG</text>
  </g>
<g transform="translate(700 742)" opacity="0.55">
  <path d="M-16 -4 C -16 -12 16 -12 16 -4" fill="none" stroke="#1a1a1a" stroke-width="3" stroke-linecap="round"/>
  <rect x="-20" y="-4" width="40" height="30" rx="4" fill="none" stroke="#1a1a1a" stroke-width="3"/>
  <text x="34" y="18" font-family="Georgia, serif" font-size="16" fill="#1a1a1a">grosir.in</text>
</g>
</svg>